<svg width="67" height="68" viewBox="0 0 67 68" fill="none" xmlns="http://www.w3.org/2000/svg">
<path fill-rule="evenodd" clip-rule="evenodd" d="M44.4699 0.780029H66.4799L66.9299 45.34L44.5599 67.71L44.5799 23.02L22.3999 22.83L44.4699 0.780029Z" fill="#E85714"/>
<path fill-rule="evenodd" clip-rule="evenodd" d="M22.46 67.82H0.45L0 23.26L22.37 0.890015L22.35 45.59L44.53 45.78L22.46 67.82Z" fill="#2D2D83"/>
<path fill-rule="evenodd" clip-rule="evenodd" d="M33.3999 25.26H33.6399C37.1399 25.31 37.5599 27.7 37.5499 30.69C38.5599 31.03 37.7199 33.15 37.2999 33.75C36.8599 34.38 36.8299 34.29 36.4899 35.06C36.2699 35.57 35.8899 35.97 35.6899 36.37L36.4499 35.59L36.5599 37.64C37.4199 38.03 38.2699 38.43 39.1499 38.78C40.0099 39.13 40.9299 39.44 41.7499 39.88C43.4899 40.8 44.1899 42.65 44.5999 44.47C44.9699 46.13 44.3699 45.99 43.0599 46.39C42.1099 46.69 41.1199 46.95 40.1499 47.19C38.1099 47.69 35.9999 47.88 33.8899 47.9H33.0499C29.6899 47.87 26.9899 47.41 23.7899 46.39C22.4599 45.96 21.8899 46.13 22.2699 44.43C22.6999 42.55 23.3599 40.82 25.1499 39.87C25.9799 39.43 26.8699 39.12 27.7499 38.77C28.6199 38.41 29.4599 38.03 30.3199 37.64L30.3799 35.58L31.1499 36.4C31.0299 36.08 30.5399 35.5 30.3499 35.06C30.2799 34.91 30.0999 34.43 30.0299 34.32C29.8799 34.12 29.6899 33.97 29.5399 33.75C29.1199 33.15 28.7299 32.06 28.8399 31.3C28.9399 30.68 29.0499 30.91 29.2899 30.69C29.2899 29.26 29.1499 27.87 30.0399 26.65C30.8599 25.53 32.0999 25.28 33.3999 25.26ZM35.6599 36.4L35.6399 36.42L35.6599 36.4ZM35.6899 36.37L35.6599 36.4L35.6899 36.37Z" fill="#323242"/>
</svg>
